<svg width="40" height="40" viewBox="0 0 40 40" fill="none" xmlns="http://www.w3.org/2000/svg">
<path d="M26.6668 16.6667C26.6668 18.4348 25.9645 20.1305 24.7142 21.3807C23.464 22.631 21.7683 23.3333 20.0002 23.3333C18.2321 23.3333 16.5364 22.631 15.2861 21.3807C14.0359 20.1305 13.3335 18.4348 13.3335 16.6667C13.3335 14.8986 14.0359 13.2029 15.2861 11.9526C16.5364 10.7024 18.2321 10 20.0002 10C21.7683 10 23.464 10.7024 24.7142 11.9526C25.9645 13.2029 26.6668 14.8986 26.6668 16.6667Z" fill="black"/>
<path fill-rule="evenodd" clip-rule="evenodd" d="M19.3202 36.6533C10.431 36.2967 3.3335 28.9767 3.3335 20C3.3335 10.795 10.7952 3.33334 20.0002 3.33334C29.2052 3.33334 36.6668 10.795 36.6668 20C36.6668 29.205 29.2052 36.6667 20.0002 36.6667C19.9241 36.6672 19.8479 36.6672 19.7718 36.6667C19.621 36.6667 19.4702 36.6617 19.3202 36.6533ZM9.30516 30.5167C9.18055 30.1588 9.13813 29.7775 9.18106 29.401C9.22399 29.0245 9.35117 28.6625 9.55314 28.3419C9.75512 28.0213 10.0267 27.7503 10.3478 27.549C10.6688 27.3477 11.0311 27.2213 11.4077 27.1792C17.9043 26.46 22.136 26.525 28.601 27.1942C28.9781 27.2334 29.3412 27.3582 29.6628 27.5591C29.9844 27.7599 30.2559 28.0315 30.4566 28.3531C30.6574 28.6747 30.7821 29.0379 30.8212 29.415C30.8604 29.7921 30.813 30.1732 30.6827 30.5292C33.4534 27.7258 35.0051 23.9416 35.0002 20C35.0002 11.7158 28.2843 5.00001 20.0002 5.00001C11.716 5.00001 5.00016 11.7158 5.00016 20C5.00016 24.0967 6.64266 27.81 9.30516 30.5167Z" fill="black"/>
</svg>
