<svg width="120" height="1024" viewBox="0 0 120 1024" fill="none" xmlns="http://www.w3.org/2000/svg">
<rect y="-93" width="120" height="1117" fill="#B58564"/>
<g clip-path="url(#clip0_30_350)">
<path d="M60.0002 80.2463L68.3335 87.5587V100.25H65.0002V90.5H55.0002V100.25H51.6668V87.5587L60.0002 80.2463ZM60.0002 75.875L43.3335 90.5H48.3335V103.5H58.3335V93.75H61.6668V103.5H71.6668V90.5H76.6668L60.0002 75.875Z" fill="#6F4E37"/>
</g>
<g clip-path="url(#clip1_30_350)">
<path d="M59.9998 227.667C61.8332 227.667 63.3332 226.167 63.3332 224.333H56.6665C56.6665 226.167 58.1665 227.667 59.9998 227.667ZM69.9998 217.667V209.333C69.9998 204.217 67.2832 199.933 62.4998 198.8V197.667C62.4998 196.283 61.3832 195.167 59.9998 195.167C58.6165 195.167 57.4998 196.283 57.4998 197.667V198.8C52.7332 199.933 49.9998 204.2 49.9998 209.333V217.667L46.6665 221V222.667H73.3332V221L69.9998 217.667ZM66.6665 219.333H53.3332V209.333C53.3332 205.2 55.8498 201.833 59.9998 201.833C64.1498 201.833 66.6665 205.2 66.6665 209.333V219.333Z" fill="#6F4E37"/>
</g>
<g clip-path="url(#clip2_30_350)">
<path d="M73.3335 316.875H71.6668V313.625H68.3335V316.875H51.6668V313.625H48.3335V316.875H46.6668C44.8335 316.875 43.3335 318.338 43.3335 320.125V346.125C43.3335 347.912 44.8335 349.375 46.6668 349.375H73.3335C75.1668 349.375 76.6668 347.912 76.6668 346.125V320.125C76.6668 318.338 75.1668 316.875 73.3335 316.875ZM73.3335 346.125H46.6668V328.25H73.3335V346.125ZM73.3335 325H46.6668V320.125H73.3335V325Z" fill="#6F4E37"/>
</g>
<g clip-path="url(#clip3_30_350)">
<path d="M45.8335 462.817L55.8335 452.8L62.5002 459.467L76.6668 443.533L74.3168 441.183L62.5002 454.467L55.8335 447.8L43.3335 460.317L45.8335 462.817Z" fill="#6F4E37"/>
</g>
<g clip-path="url(#clip4_30_350)">
<path d="M59.9998 562.75C61.8332 562.75 63.3332 564.213 63.3332 566C63.3332 567.788 61.8332 569.25 59.9998 569.25C58.1665 569.25 56.6665 567.788 56.6665 566C56.6665 564.213 58.1665 562.75 59.9998 562.75ZM59.9998 579C64.4998 579 69.6665 581.096 69.9998 582.25H49.9998C50.3832 581.08 55.5165 579 59.9998 579ZM59.9998 559.5C56.3165 559.5 53.3332 562.409 53.3332 566C53.3332 569.591 56.3165 572.5 59.9998 572.5C63.6832 572.5 66.6665 569.591 66.6665 566C66.6665 562.409 63.6832 559.5 59.9998 559.5ZM59.9998 575.75C55.5498 575.75 46.6665 577.927 46.6665 582.25V585.5H73.3332V582.25C73.3332 577.927 64.4498 575.75 59.9998 575.75Z" fill="#6F4E37"/>
</g>
<circle cx="59.5" cy="954.5" r="40.5" fill="#6F4E37"/>
<g clip-path="url(#clip5_30_350)">
<path d="M73.2802 955.88C73.3602 955.28 73.4002 954.66 73.4002 954C73.4002 953.36 73.3602 952.72 73.2602 952.12L77.3202 948.96C77.6802 948.68 77.7802 948.14 77.5602 947.74L73.7202 941.1C73.4802 940.66 72.9802 940.52 72.5402 940.66L67.7602 942.58C66.7602 941.82 65.7002 941.18 64.5202 940.7L63.8002 935.62C63.7202 935.14 63.3202 934.8 62.8402 934.8H55.1602C54.6802 934.8 54.3002 935.14 54.2202 935.62L53.5002 940.7C52.3202 941.18 51.2402 941.84 50.2602 942.58L45.4802 940.66C45.0402 940.5 44.5402 940.66 44.3002 941.1L40.4802 947.74C40.2402 948.16 40.3202 948.68 40.7202 948.96L44.7802 952.12C44.6802 952.72 44.6002 953.38 44.6002 954C44.6002 954.62 44.6402 955.28 44.7402 955.88L40.6802 959.04C40.3202 959.32 40.2202 959.86 40.4402 960.26L44.2802 966.9C44.5202 967.34 45.0202 967.48 45.4602 967.34L50.2402 965.42C51.2402 966.18 52.3002 966.82 53.4802 967.3L54.2002 972.38C54.3002 972.86 54.6802 973.2 55.1602 973.2H62.8402C63.3202 973.2 63.7202 972.86 63.7802 972.38L64.5002 967.3C65.6802 966.82 66.7602 966.18 67.7402 965.42L72.5202 967.34C72.9602 967.5 73.4602 967.34 73.7002 966.9L77.5402 960.26C77.7802 959.82 77.6802 959.32 77.3002 959.04L73.2802 955.88ZM59.0002 961.2C55.0402 961.2 51.8002 957.96 51.8002 954C51.8002 950.04 55.0402 946.8 59.0002 946.8C62.9602 946.8 66.2002 950.04 66.2002 954C66.2002 957.96 62.9602 961.2 59.0002 961.2Z" fill="white"/>
</g>
<defs>
<clipPath id="clip0_30_350">
<rect width="40" height="39" fill="white" transform="translate(40 71)"/>
</clipPath>
<clipPath id="clip1_30_350">
<rect width="40" height="40" fill="white" transform="translate(40 191)"/>
</clipPath>
<clipPath id="clip2_30_350">
<rect width="40" height="39" fill="white" transform="translate(40 312)"/>
</clipPath>
<clipPath id="clip3_30_350">
<rect width="40" height="40" fill="white" transform="translate(40 432)"/>
</clipPath>
<clipPath id="clip4_30_350">
<rect width="40" height="39" fill="white" transform="translate(40 553)"/>
</clipPath>
<clipPath id="clip5_30_350">
<rect width="48" height="48" fill="white" transform="translate(35 930)"/>
</clipPath>
</defs>
</svg>
